<?xml version="1.0" encoding="utf-8"?>
<!-- Generator: Adobe Illustrator 21.1.0, SVG Export Plug-In . SVG Version: 6.00 Build 0)  -->
<svg version="1.1" id="Layer_1" xmlns="http://www.w3.org/2000/svg" xmlns:xlink="http://www.w3.org/1999/xlink" x="0px" y="0px"
	 viewBox="0 0 233.1 57" style="enable-background:new 0 0 233.1 57;" xml:space="preserve">
<style type="text/css">
	.st0{fill:#27AAE1;}
	.st1{fill:#1B75BC;}
	.st2{fill:#FFFFFF;}
</style>
<g>
	<g>
		<path class="st0" d="M80.1,14.7C72.3,14.7,66,21,66,28.8v11.3c0,1.6,1.2,2.8,2.8,2.8c1.6,0,2.8-1.2,2.8-2.8V28.8
			c0-4.7,3.8-8.5,8.5-8.5c4.7,0,8.5,3.8,8.5,8.5v11.3c0,1.6,1.2,2.8,2.7,2.8c1.6,0,2.8-1.2,2.8-2.8V28.8
			C94.1,21,87.8,14.7,80.1,14.7z"/>
		<path class="st0" d="M118.5,14.8c-1.6,0-2.8,1.2-2.8,2.8v14c0,3.2-2.6,5.8-5.8,5.8c-3.2,0-5.8-2.6-5.8-5.8v-14
			c0-1.5-1.2-2.8-2.8-2.8c-1.5,0-2.8,1.2-2.8,2.8v14.1c0.1,6.2,5.1,11.3,11.3,11.3c6.3,0,11.3-5,11.4-11.3V17.5
			C121.2,16,120,14.8,118.5,14.8z"/>
		<path class="st0" d="M139.6,14.8c-7.7,0-14.1,6.3-14.1,14.1v11.3c0,1.5,1.2,2.8,2.8,2.8c1.5,0,2.8-1.3,2.8-2.8V28.9
			c0-4.7,3.8-8.5,8.5-8.5c1.6,0,2.8-1.3,2.8-2.8C142.4,16,141.2,14.8,139.6,14.8z"/>
		<path class="st0" d="M161,14.7h-4.9c0-2.5,0.8-4.7,2.5-6.4c0.9-0.9,2-1.6,3.2-2c1.5-0.5,2.2-2.1,1.7-3.5c-0.5-1.5-2.1-2.2-3.5-1.7
			c-2,0.7-3.8,1.8-5.3,3.3c-2.7,2.7-4.2,6.3-4.1,10.3h-3.1c-1.5,0-2.8,1.2-2.8,2.8c0,1.6,1.2,2.8,2.8,2.8h3.1v19.8
			c0,1.6,1.2,2.8,2.8,2.8c1.6,0,2.8-1.2,2.8-2.8V20.3h4.9c1.6,0,2.8-1.2,2.8-2.8C163.8,15.9,162.6,14.7,161,14.7z"/>
		<path class="st1" d="M169.3,38.1c-0.5-0.5-1.2-0.8-2-0.8c-0.7,0-1.4,0.3-2,0.8c-0.5,0.6-0.8,1.2-0.8,2c0,0.7,0.3,1.5,0.8,2
			c0.6,0.6,1.2,0.8,2,0.8c0.7,0,1.5-0.3,2-0.8c0.6-0.5,0.8-1.2,0.8-2C170.2,39.3,169.9,38.7,169.3,38.1z"/>
		<path class="st1" d="M187.6,14.7c-7.8,0-14.1,6.3-14.1,14.1c0,7.7,6.3,14.1,14.1,14.1c3.2,0,6.1-1.1,8.5-2.9v3.1
			c-0.1,4.6-3.9,8.4-8.5,8.4c-3.3,0-6.2-1.8-7.7-4.8c-0.7-1.3-2.3-1.9-3.7-1.2c-1.4,0.7-2,2.3-1.3,3.7c2.4,4.9,7.2,7.9,12.7,7.9
			c7.8,0,14.1-6.3,14.1-14.1c0-14.1,0-14.1,0-14.1C201.6,21,195.3,14.7,187.6,14.7z M187.6,37.3c-4.7,0-8.5-3.9-8.5-8.5
			c0-4.7,3.8-8.5,8.5-8.5c4.7,0,8.5,3.8,8.5,8.5C196.1,33.5,192.2,37.3,187.6,37.3z"/>
		<path class="st1" d="M219,14.7c-7.8,0-14.1,6.3-14.1,14.1c0,7.7,6.3,14.1,14.1,14.1c3.2,0,6.1-1.1,8.5-2.9v3.1
			c-0.1,4.6-3.9,8.4-8.5,8.4c-3.3,0-6.2-1.8-7.7-4.8c-0.7-1.3-2.4-1.9-3.7-1.2c-1.4,0.7-2,2.3-1.3,3.7c2.4,4.9,7.2,7.9,12.7,7.9
			c7.8,0,14.1-6.3,14.1-14.1c0-14.1,0-14.1,0-14.1C233.1,21,226.8,14.7,219,14.7z M219,37.3c-4.7,0-8.5-3.9-8.5-8.5
			c0-4.7,3.8-8.5,8.5-8.5c4.7,0,8.5,3.8,8.5,8.5C227.6,33.5,223.7,37.3,219,37.3z"/>
	</g>
	<g>
		<path class="st0" d="M56.1,28.1c0,15.5-12.6,28-28,28c-8.1,0-15.4-3.4-20.5-8.9c-1.1-1.2-2.1-2.5-3-3.8c0-0.1-0.1-0.1-0.1-0.2
			c-0.9-1.4-1.6-2.8-2.3-4.3C0.8,35.6,0,31.9,0,28.1C0,12.6,12.5,0,28,0C37.5,0,45.9,4.7,51,11.9c0.9,1.3,1.7,2.7,2.4,4.2
			c0.1,0.3,0.3,0.5,0.4,0.8c0.6,1.4,1.1,2.8,1.4,4.2C55.8,23.4,56.1,25.7,56.1,28.1z"/>
	</g>
	<g>
		<path class="st1" d="M56.1,28.1c0,15.5-12.6,28-28,28c-8.1,0-15.4-3.4-20.5-8.9c-1.1-1.2-2.1-2.5-3-3.8c0-0.1-0.1-0.1-0.1-0.2
			C5.6,41.8,7,40.5,8.9,39c0,0,0,0,0,0l12.4-12.4l10.8,10.8l20.3-20.3l1.4-0.2c0.6,1.4,1.1,2.8,1.4,4.2
			C55.8,23.4,56.1,25.7,56.1,28.1z"/>
	</g>
	<g>
		<path class="st2" d="M55.2,21.1L35.5,40.8c-1.9,1.9-4.9,1.9-6.8,0l-7.4-7.4l-9,9c-0.1,0.1-0.1,0.1-0.2,0.2l-4.6,4.6
			c-1.1-1.2-2.1-2.5-3-3.8c0-0.1-0.1-0.1-0.1-0.2c-0.9-1.4-1.6-2.8-2.3-4.3l3.3-3.3c0.1-0.1,0.1-0.1,0.2-0.2l12.2-12.3
			c0.9-0.9,2.1-1.4,3.4-1.4c1.3,0,2.5,0.5,3.4,1.4l7.4,7.4L50,12.7c0.3-0.3,0.6-0.6,1-0.8c0.9,1.3,1.7,2.7,2.4,4.2
			c0.1,0.3,0.3,0.5,0.4,0.8C54.3,18.3,54.8,19.7,55.2,21.1z"/>
	</g>
</g>
</svg>
